<?xml version="1.0" standalone="no"?><!DOCTYPE svg PUBLIC "-//W3C//DTD SVG 1.1//EN" "http://www.w3.org/Graphics/SVG/1.1/DTD/svg11.dtd"><svg t="1750314776211" class="icon" viewBox="0 0 1024 1024" version="1.1" xmlns="http://www.w3.org/2000/svg" p-id="9128" xmlns:xlink="http://www.w3.org/1999/xlink" width="200" height="200"><path d="M915.968 195.584l-384.512-143.36c-13.824-4.608-23.04-4.608-36.864 0l-384.512 143.36c-18.432 9.216-32.256 23.04-32.256 46.08s13.824 36.864 32.256 46.08l384.512 143.36c9.216 4.608 23.04 4.608 32.256 0l384.512-143.36c18.432-9.216 32.256-23.04 32.256-46.08s-9.216-40.96-27.648-46.08z" fill="#8D8E8E" p-id="9129"></path><path d="M219.136 640.512l55.808-4.608c0 9.216 4.608 13.824 9.216 18.432 4.608 9.216 13.824 9.216 23.04 9.216 9.216 0 13.824 0 18.432-4.608 4.608-4.608 4.608-9.216 4.608-13.824 0-4.608 0-9.216-4.608-13.824-4.608 4.608-13.824 0-32.256-4.608-23.04-4.608-41.472-13.824-50.688-23.04-9.216-9.216-13.824-23.04-13.824-36.864 0-9.216 4.608-18.432 9.216-27.648 0-4.608 9.216-9.216 18.432-13.824 9.216-4.608 27.648-9.216 46.08-9.216 23.04 0 41.472 4.608 50.688 13.824 13.824 9.216 18.432 23.04 23.04 41.472l-50.688 4.608c0-9.216-4.608-13.824-9.216-18.432-4.608-4.608-9.216-4.608-18.432-4.608-4.608 0-9.216 0-13.824 4.608-4.608 4.608-4.608 4.608-4.608 9.216s0 4.608 4.608 9.216 9.216 4.608 18.432 4.608c23.04 4.608 41.472 9.216 50.688 13.824 9.216 4.608 18.432 13.824 23.04 18.432 4.608 9.216 9.216 18.432 9.216 27.648 0 13.824-4.608 23.04-9.216 32.256-4.608 9.216-13.824 18.432-27.648 23.04-13.824 4.608-27.648 9.216-46.08 9.216-32.256 0-50.688-4.608-65.024-18.432-9.216-13.824-18.432-27.648-18.432-46.08z m194.56-120.32H496.64c18.432 0 27.648 0 41.472 4.608 9.216 4.608 18.432 9.216 23.04 18.432l13.824 27.648c4.608 9.216 4.608 23.04 4.608 36.864 0 18.432 0 32.256-4.608 46.08-4.608 9.216-9.216 18.432-18.432 27.648-9.216 9.216-18.432 13.824-23.04 13.824-13.824 4.608-23.04 4.608-32.256 4.608H413.696v-179.712z m55.296 41.472v97.28h13.824c13.824 0 18.432 0 23.04-4.608l13.824-13.824c4.608-4.608 4.608-18.432 4.608-32.256 0-18.432-4.608-32.256-9.216-41.472-4.608-9.216-18.432-9.216-32.256-9.216h-13.824v4.096z m139.264-41.472h55.808v69.632l60.416-69.632H798.72l-65.024 69.632 69.632 111.104h-69.632l-36.864-74.24-27.648 32.256v46.08h-55.808v-185.344l-5.12 0.512z" fill="#FFBF00" p-id="9130"></path><path d="M515.584 970.24c-4.608 0-8.704-1.024-12.8-2.56l-384.512-166.912c-11.776-5.12-19.456-16.896-19.456-29.696V400.896c0-17.92 14.336-32.256 32.256-32.256s32.256 14.336 32.256 32.256v349.184l352.768 153.088 341.504-126.464V396.288c0-17.92 14.336-32.256 32.256-32.256s32.256 14.336 32.256 32.256v402.944c0 13.312-8.192 25.6-20.992 30.208l-375.296 138.752c-2.56 1.536-6.656 2.048-10.24 2.048z" fill="#8D8E8E" p-id="9131"></path></svg>